<?xml version="1.0" standalone="no"?>
<!DOCTYPE svg PUBLIC "-//W3C//DTD SVG 20010904//EN"
 "http://www.w3.org/TR/2001/REC-SVG-20010904/DTD/svg10.dtd">
<svg version="1.0" xmlns="http://www.w3.org/2000/svg"
 width="260.000000pt" height="260.000000pt" viewBox="0 0 260.000000 260.000000"
 preserveAspectRatio="xMidYMid meet">
<metadata>
Created by potrace 1.11, written by Peter Selinger 2001-2013
</metadata>
<g transform="translate(0.000000,260.000000) scale(0.100000,-0.100000)"
fill="#000000" stroke="none">
<path d="M212 1883 c3 -24 9 -29 45 -35 58 -10 102 -35 113 -64 14 -35 13
-855 0 -890 -14 -35 -38 -53 -71 -54 -62 0 -89 -12 -89 -36 l0 -24 250 0 250
0 0 24 c0 22 -6 26 -57 36 -104 21 -103 18 -103 273 l0 220 103 -5 c68 -3 113
-10 134 -22 37 -19 69 -74 79 -135 6 -37 9 -41 35 -41 l29 0 0 225 0 225 -28
0 c-25 0 -28 -5 -40 -52 -25 -107 -61 -130 -209 -136 l-103 -4 0 231 0 231
138 0 c75 0 155 -3 176 -7 52 -8 113 -69 152 -151 27 -56 32 -61 62 -61 l32
-1 0 140 0 140 -451 0 -450 0 3 -27z"/>
<path d="M1210 1880 c0 -24 4 -30 23 -30 40 -1 107 -37 117 -65 16 -41 13
-874 -3 -905 -13 -25 -34 -35 -99 -45 -32 -5 -38 -10 -38 -30 l0 -25 235 0
235 0 0 24 c0 21 -7 26 -52 36 -29 6 -63 20 -75 32 -23 21 -23 26 -23 240 l0
218 265 0 265 0 0 -224 0 -225 -26 -20 c-15 -12 -38 -21 -53 -21 -50 0 -71
-11 -71 -36 l0 -24 235 0 235 0 0 25 c0 20 -6 25 -37 31 -55 10 -93 32 -103
60 -13 34 -13 865 0 899 11 29 63 55 110 55 27 0 30 3 30 30 l0 30 -235 0
-235 0 0 -30 c0 -25 4 -30 24 -30 34 0 77 -18 104 -42 21 -21 22 -27 22 -215
l0 -193 -265 0 -265 0 0 198 c0 150 3 203 13 217 9 11 38 23 73 30 53 10 59
14 62 38 l3 27 -235 0 -236 0 0 -30z"/>
</g>
</svg>
